<svg width="236" height="48" viewBox="0 0 236 48" fill="none" xmlns="http://www.w3.org/2000/svg">
<path d="M63.9975 5.81818H67.3267L73.1151 19.9517H73.3281L79.1165 5.81818H82.4457V24H79.8356V10.843H79.6669L74.3047 23.9734H72.1385L66.7763 10.8342H66.6076V24H63.9975V5.81818ZM90.1894 24.3018C89.3253 24.3018 88.544 24.142 87.8456 23.8224C87.1472 23.4969 86.5938 23.0264 86.1855 22.4109C85.783 21.7953 85.5818 21.0407 85.5818 20.147C85.5818 19.3776 85.7297 18.7443 86.0257 18.2472C86.3216 17.75 86.7211 17.3564 87.2242 17.0664C87.7272 16.7764 88.2895 16.5574 88.911 16.4094C89.5324 16.2615 90.1657 16.149 90.8108 16.0721C91.6276 15.9774 92.2905 15.9004 92.7994 15.8413C93.3084 15.7762 93.6784 15.6726 93.9092 15.5305C94.14 15.3885 94.2554 15.1577 94.2554 14.8381V14.7759C94.2554 14.0006 94.0364 13.3999 93.5985 12.9737C93.1664 12.5476 92.5213 12.3345 91.6631 12.3345C90.7694 12.3345 90.0651 12.5328 89.5502 12.9293C89.0412 13.32 88.689 13.755 88.4937 14.2344L85.999 13.6662C86.295 12.8376 86.727 12.1688 87.2952 11.6598C87.8693 11.1449 88.5292 10.772 89.2749 10.5412C90.0207 10.3045 90.8049 10.1861 91.6276 10.1861C92.1721 10.1861 92.7491 10.2512 93.3588 10.3814C93.9743 10.5057 94.5484 10.7365 95.0811 11.0739C95.6196 11.4112 96.0606 11.8936 96.4039 12.521C96.7471 13.1424 96.9188 13.9503 96.9188 14.9446V24H94.3264V22.1357H94.2199C94.0483 22.4789 93.7908 22.8163 93.4475 23.1477C93.1043 23.4792 92.6633 23.7544 92.1247 23.9734C91.5861 24.1924 90.941 24.3018 90.1894 24.3018ZM90.7664 22.1712C91.5003 22.1712 92.1277 22.0262 92.6485 21.7362C93.1753 21.4461 93.5748 21.0674 93.847 20.5998C94.1252 20.1263 94.2643 19.6203 94.2643 19.0817V17.3239C94.1696 17.4186 93.9861 17.5073 93.7139 17.5902C93.4475 17.6671 93.1427 17.7352 92.7994 17.7944C92.4562 17.8477 92.1218 17.898 91.7963 17.9453C91.4707 17.9867 91.1985 18.0223 90.9795 18.0518C90.4646 18.117 89.9941 18.2264 89.5679 18.3803C89.1477 18.5342 88.8103 18.7562 88.5558 19.0462C88.3073 19.3303 88.183 19.709 88.183 20.1825C88.183 20.8395 88.4256 21.3366 88.911 21.674C89.3963 22.0054 90.0148 22.1712 90.7664 22.1712ZM106.82 10.3636V12.4943H99.3713V10.3636H106.82ZM101.369 7.09659H104.023V19.9961C104.023 20.511 104.1 20.8987 104.254 21.1591C104.408 21.4136 104.606 21.5882 104.849 21.6829C105.097 21.7717 105.367 21.8161 105.657 21.8161C105.87 21.8161 106.056 21.8013 106.216 21.7717C106.376 21.7421 106.5 21.7184 106.589 21.7006L107.068 23.8935C106.914 23.9527 106.695 24.0118 106.411 24.071C106.127 24.1361 105.772 24.1716 105.346 24.1776C104.648 24.1894 103.997 24.0651 103.393 23.8047C102.789 23.5443 102.301 23.1418 101.928 22.5973C101.555 22.0528 101.369 21.3692 101.369 20.5465V7.09659ZM109.756 24V10.3636H112.322V12.5298H112.464C112.712 11.7959 113.15 11.2189 113.778 10.7987C114.411 10.3725 115.127 10.1594 115.926 10.1594C116.092 10.1594 116.287 10.1654 116.512 10.1772C116.743 10.189 116.924 10.2038 117.054 10.2216V12.7607C116.947 12.7311 116.758 12.6985 116.486 12.663C116.213 12.6216 115.941 12.6009 115.669 12.6009C115.041 12.6009 114.482 12.734 113.991 13.0004C113.506 13.2608 113.121 13.6248 112.837 14.0923C112.553 14.554 112.411 15.0807 112.411 15.6726V24H109.756ZM119.351 24V10.3636H122.005V24H119.351ZM120.691 8.25959C120.23 8.25959 119.833 8.1057 119.502 7.79794C119.176 7.48426 119.013 7.11139 119.013 6.67933C119.013 6.24136 119.176 5.86849 119.502 5.56072C119.833 5.24704 120.23 5.0902 120.691 5.0902C121.153 5.0902 121.547 5.24704 121.872 5.56072C122.204 5.86849 122.369 6.24136 122.369 6.67933C122.369 7.11139 122.204 7.48426 121.872 7.79794C121.547 8.1057 121.153 8.25959 120.691 8.25959ZM131.942 10.3636V12.4943H124.493V10.3636H131.942ZM126.491 7.09659H129.145V19.9961C129.145 20.511 129.222 20.8987 129.376 21.1591C129.53 21.4136 129.728 21.5882 129.971 21.6829C130.22 21.7717 130.489 21.8161 130.779 21.8161C130.992 21.8161 131.178 21.8013 131.338 21.7717C131.498 21.7421 131.622 21.7184 131.711 21.7006L132.19 23.8935C132.037 23.9527 131.818 24.0118 131.533 24.071C131.249 24.1361 130.894 24.1716 130.468 24.1776C129.77 24.1894 129.119 24.0651 128.515 23.8047C127.911 23.5443 127.423 23.1418 127.05 22.5973C126.677 22.0528 126.491 21.3692 126.491 20.5465V7.09659ZM144.877 13.6928L142.471 14.119C142.37 13.8112 142.211 13.5182 141.992 13.2401C141.778 12.9619 141.488 12.734 141.122 12.5565C140.755 12.3789 140.296 12.2901 139.745 12.2901C138.994 12.2901 138.366 12.4588 137.863 12.7962C137.36 13.1276 137.109 13.5567 137.109 14.0835C137.109 14.5392 137.277 14.9061 137.615 15.1843C137.952 15.4625 138.497 15.6903 139.248 15.8679L141.415 16.3651C142.669 16.6551 143.604 17.1019 144.22 17.7056C144.835 18.3093 145.143 19.0935 145.143 20.0582C145.143 20.875 144.906 21.603 144.433 22.2422C143.965 22.8755 143.311 23.3726 142.471 23.7337C141.636 24.0947 140.669 24.2752 139.568 24.2752C138.041 24.2752 136.795 23.9497 135.83 23.2987C134.866 22.6417 134.274 21.7095 134.055 20.5021L136.62 20.1115C136.78 20.7803 137.109 21.2863 137.606 21.6296C138.103 21.967 138.751 22.1357 139.55 22.1357C140.42 22.1357 141.116 21.9551 141.636 21.5941C142.157 21.2272 142.418 20.7803 142.418 20.2536C142.418 19.8274 142.258 19.4693 141.938 19.1793C141.625 18.8893 141.142 18.6703 140.491 18.5224L138.183 18.0163C136.91 17.7263 135.969 17.2647 135.36 16.6314C134.756 15.9981 134.454 15.1961 134.454 14.2255C134.454 13.4206 134.679 12.7163 135.129 12.1126C135.579 11.5089 136.2 11.0384 136.993 10.701C137.786 10.3577 138.695 10.1861 139.719 10.1861C141.193 10.1861 142.353 10.5057 143.199 11.1449C144.045 11.7782 144.605 12.6275 144.877 13.6928ZM152.03 24.3018C151.166 24.3018 150.385 24.142 149.686 23.8224C148.988 23.4969 148.435 23.0264 148.026 22.4109C147.624 21.7953 147.423 21.0407 147.423 20.147C147.423 19.3776 147.571 18.7443 147.866 18.2472C148.162 17.75 148.562 17.3564 149.065 17.0664C149.568 16.7764 150.13 16.5574 150.752 16.4094C151.373 16.2615 152.007 16.149 152.652 16.0721C153.468 15.9774 154.131 15.9004 154.64 15.8413C155.149 15.7762 155.519 15.6726 155.75 15.5305C155.981 15.3885 156.096 15.1577 156.096 14.8381V14.7759C156.096 14.0006 155.877 13.3999 155.439 12.9737C155.007 12.5476 154.362 12.3345 153.504 12.3345C152.61 12.3345 151.906 12.5328 151.391 12.9293C150.882 13.32 150.53 13.755 150.335 14.2344L147.84 13.6662C148.136 12.8376 148.568 12.1688 149.136 11.6598C149.71 11.1449 150.37 10.772 151.116 10.5412C151.862 10.3045 152.646 10.1861 153.468 10.1861C154.013 10.1861 154.59 10.2512 155.2 10.3814C155.815 10.5057 156.389 10.7365 156.922 11.0739C157.46 11.4112 157.901 11.8936 158.245 12.521C158.588 13.1424 158.76 13.9503 158.76 14.9446V24H156.167V22.1357H156.061C155.889 22.4789 155.632 22.8163 155.288 23.1477C154.945 23.4792 154.504 23.7544 153.966 23.9734C153.427 24.1924 152.782 24.3018 152.03 24.3018ZM152.607 22.1712C153.341 22.1712 153.969 22.0262 154.489 21.7362C155.016 21.4461 155.416 21.0674 155.688 20.5998C155.966 20.1263 156.105 19.6203 156.105 19.0817V17.3239C156.01 17.4186 155.827 17.5073 155.555 17.5902C155.288 17.6671 154.984 17.7352 154.64 17.7944C154.297 17.8477 153.963 17.898 153.637 17.9453C153.312 17.9867 153.039 18.0223 152.82 18.0518C152.305 18.117 151.835 18.2264 151.409 18.3803C150.989 18.5342 150.651 18.7562 150.397 19.0462C150.148 19.3303 150.024 19.709 150.024 20.1825C150.024 20.8395 150.266 21.3366 150.752 21.674C151.237 22.0054 151.856 22.1712 152.607 22.1712Z" fill="white"/>
<path d="M179.041 10.5945C178.946 9.75402 178.556 9.10298 177.869 8.64133C177.183 8.17377 176.318 7.93999 175.277 7.93999C174.531 7.93999 173.886 8.05836 173.341 8.2951C172.797 8.52592 172.374 8.84553 172.072 9.25391C171.776 9.65637 171.628 10.1151 171.628 10.63C171.628 11.062 171.729 11.4349 171.93 11.7486C172.137 12.0623 172.406 12.3256 172.738 12.5387C173.075 12.7459 173.436 12.9205 173.821 13.0625C174.206 13.1986 174.575 13.3111 174.931 13.3999L176.706 13.8615C177.286 14.0036 177.881 14.1959 178.491 14.4386C179.1 14.6812 179.665 15.0008 180.186 15.3974C180.707 15.7939 181.127 16.2852 181.447 16.8711C181.772 17.457 181.935 18.1584 181.935 18.9751C181.935 20.005 181.669 20.9194 181.136 21.7184C180.609 22.5174 179.843 23.1477 178.837 23.6094C177.837 24.071 176.626 24.3018 175.206 24.3018C173.845 24.3018 172.667 24.0858 171.672 23.6538C170.678 23.2217 169.9 22.6091 169.338 21.8161C168.775 21.017 168.465 20.0701 168.405 18.9751H171.157C171.211 19.6321 171.424 20.1796 171.797 20.6175C172.175 21.0496 172.658 21.3722 173.244 21.5852C173.836 21.7924 174.484 21.896 175.188 21.896C175.963 21.896 176.653 21.7746 177.257 21.532C177.866 21.2834 178.346 20.9401 178.695 20.5021C179.044 20.0582 179.219 19.5404 179.219 18.9485C179.219 18.4099 179.065 17.969 178.757 17.6257C178.455 17.2824 178.044 16.9983 177.523 16.7734C177.008 16.5485 176.425 16.3503 175.774 16.1786L173.626 15.5927C172.17 15.1961 171.015 14.6132 170.163 13.8438C169.317 13.0743 168.894 12.0563 168.894 10.7898C168.894 9.74219 169.178 8.82777 169.746 8.04652C170.314 7.26527 171.084 6.65862 172.054 6.22656C173.025 5.78859 174.12 5.5696 175.339 5.5696C176.57 5.5696 177.656 5.78563 178.597 6.21768C179.544 6.64974 180.29 7.24455 180.834 8.00213C181.379 8.75379 181.663 9.6179 181.687 10.5945H179.041ZM193.638 18.3448V10.3636H196.302V24H193.692V21.6385H193.55C193.236 22.3665 192.733 22.9731 192.04 23.4585C191.354 23.9379 190.499 24.1776 189.475 24.1776C188.599 24.1776 187.823 23.9852 187.149 23.6005C186.48 23.2099 185.953 22.6328 185.568 21.8693C185.19 21.1058 185 20.1618 185 19.0373V10.3636H187.655V18.7177C187.655 19.6469 187.912 20.3867 188.427 20.9371C188.942 21.4876 189.611 21.7628 190.434 21.7628C190.931 21.7628 191.425 21.6385 191.916 21.3899C192.413 21.1413 192.825 20.7655 193.15 20.2624C193.482 19.7594 193.644 19.1201 193.638 18.3448ZM204.973 24.2663C203.872 24.2663 202.89 23.9852 202.026 23.4229C201.168 22.8548 200.493 22.0469 200.002 20.9993C199.516 19.9458 199.274 18.6822 199.274 17.2085C199.274 15.7347 199.519 14.4741 200.01 13.4265C200.508 12.3789 201.188 11.5769 202.052 11.0206C202.916 10.4643 203.896 10.1861 204.991 10.1861C205.837 10.1861 206.518 10.3281 207.033 10.6122C207.554 10.8904 207.956 11.2159 208.24 11.5888C208.53 11.9616 208.755 12.2901 208.915 12.5742H209.075V5.81818H211.729V24H209.137V21.8782H208.915C208.755 22.1682 208.524 22.4996 208.222 22.8725C207.927 23.2454 207.518 23.5709 206.997 23.8491C206.477 24.1272 205.802 24.2663 204.973 24.2663ZM205.559 22.0025C206.323 22.0025 206.968 21.8013 207.494 21.3988C208.027 20.9904 208.43 20.4252 208.702 19.7031C208.98 18.9811 209.119 18.1406 209.119 17.1818C209.119 16.2348 208.983 15.4062 208.711 14.696C208.439 13.9858 208.039 13.4324 207.512 13.0359C206.985 12.6393 206.334 12.4411 205.559 12.4411C204.76 12.4411 204.094 12.6482 203.562 13.0625C203.029 13.4768 202.626 14.042 202.354 14.7582C202.088 15.4743 201.955 16.2822 201.955 17.1818C201.955 18.0933 202.091 18.913 202.363 19.641C202.635 20.369 203.038 20.946 203.57 21.3722C204.109 21.7924 204.772 22.0025 205.559 22.0025ZM215.731 24V5.81818H218.385V12.5742H218.545C218.699 12.2901 218.921 11.9616 219.211 11.5888C219.501 11.2159 219.903 10.8904 220.418 10.6122C220.933 10.3281 221.614 10.1861 222.46 10.1861C223.561 10.1861 224.544 10.4643 225.408 11.0206C226.272 11.5769 226.95 12.3789 227.441 13.4265C227.938 14.4741 228.187 15.7347 228.187 17.2085C228.187 18.6822 227.941 19.9458 227.45 20.9993C226.958 22.0469 226.284 22.8548 225.426 23.4229C224.567 23.9852 223.588 24.2663 222.487 24.2663C221.658 24.2663 220.981 24.1272 220.454 23.8491C219.933 23.5709 219.525 23.2454 219.229 22.8725C218.933 22.4996 218.705 22.1682 218.545 21.8782H218.323V24H215.731ZM218.332 17.1818C218.332 18.1406 218.471 18.9811 218.749 19.7031C219.028 20.4252 219.43 20.9904 219.957 21.3988C220.484 21.8013 221.129 22.0025 221.892 22.0025C222.685 22.0025 223.348 21.7924 223.881 21.3722C224.413 20.946 224.816 20.369 225.088 19.641C225.366 18.913 225.505 18.0933 225.505 17.1818C225.505 16.2822 225.369 15.4743 225.097 14.7582C224.831 14.042 224.428 13.4768 223.89 13.0625C223.357 12.6482 222.691 12.4411 221.892 12.4411C221.123 12.4411 220.472 12.6393 219.939 13.0359C219.412 13.4324 219.013 13.9858 218.741 14.696C218.468 15.4062 218.332 16.2348 218.332 17.1818ZM231.167 24V10.3636H233.822V24H231.167ZM232.508 8.25959C232.046 8.25959 231.65 8.1057 231.318 7.79794C230.993 7.48426 230.83 7.11139 230.83 6.67933C230.83 6.24136 230.993 5.86849 231.318 5.56072C231.65 5.24704 232.046 5.0902 232.508 5.0902C232.969 5.0902 233.363 5.24704 233.689 5.56072C234.02 5.86849 234.186 6.24136 234.186 6.67933C234.186 7.11139 234.02 7.48426 233.689 7.79794C233.363 8.1057 232.969 8.25959 232.508 8.25959Z" fill="#5FD48B"/>
<path d="M64.0707 40V31.8182H65.5994V33.1499H65.7006C65.8711 32.6989 66.1499 32.3473 66.5369 32.0952C66.924 31.8395 67.3874 31.7116 67.9272 31.7116C68.4741 31.7116 68.9322 31.8395 69.3015 32.0952C69.6744 32.3509 69.9496 32.7024 70.1271 33.1499H70.2124C70.4077 32.7131 70.7184 32.3651 71.1445 32.1058C71.5707 31.843 72.0785 31.7116 72.668 31.7116C73.4102 31.7116 74.0156 31.9442 74.4844 32.4094C74.9567 32.8746 75.1928 33.576 75.1928 34.5135V40H73.6001V34.6626C73.6001 34.1087 73.4492 33.7074 73.1474 33.4588C72.8455 33.2102 72.4851 33.0859 72.0661 33.0859C71.5476 33.0859 71.1445 33.2457 70.8569 33.5653C70.5692 33.8814 70.4254 34.288 70.4254 34.7852V40H68.8381V34.5614C68.8381 34.1175 68.6996 33.7607 68.4226 33.4908C68.1456 33.2209 67.7852 33.0859 67.3413 33.0859C67.0394 33.0859 66.7607 33.1658 66.505 33.3256C66.2528 33.4819 66.0487 33.7003 65.8924 33.9808C65.7397 34.2614 65.6634 34.5863 65.6634 34.9556V40H64.0707ZM79.7085 40.1811C79.1901 40.1811 78.7213 40.0852 78.3023 39.8935C77.8833 39.6982 77.5512 39.4158 77.3062 39.0465C77.0647 38.6772 76.944 38.2244 76.944 37.6882C76.944 37.2266 77.0328 36.8466 77.2103 36.5483C77.3879 36.25 77.6276 36.0138 77.9294 35.8398C78.2313 35.6658 78.5686 35.5344 78.9415 35.4457C79.3144 35.3569 79.6943 35.2894 80.0814 35.2433C80.5715 35.1864 80.9692 35.1403 81.2746 35.1048C81.58 35.0657 81.8019 35.0036 81.9404 34.9183C82.0789 34.8331 82.1482 34.6946 82.1482 34.5028V34.4656C82.1482 34.0004 82.0168 33.6399 81.754 33.3842C81.4948 33.1286 81.1077 33.0007 80.5928 33.0007C80.0566 33.0007 79.634 33.1197 79.325 33.3576C79.0196 33.592 78.8083 33.853 78.6911 34.1406L77.1943 33.7997C77.3719 33.3026 77.6311 32.9013 77.972 32.5959C78.3165 32.2869 78.7124 32.0632 79.1599 31.9247C79.6073 31.7827 80.0779 31.7116 80.5715 31.7116C80.8982 31.7116 81.2444 31.7507 81.6102 31.8288C81.9795 31.9034 82.324 32.0419 82.6436 32.2443C82.9667 32.4467 83.2313 32.7362 83.4372 33.1126C83.6432 33.4854 83.7462 33.9702 83.7462 34.5668V40H82.1908V38.8814H82.1269C82.0239 39.0874 81.8694 39.2898 81.6634 39.4886C81.4575 39.6875 81.1929 39.8526 80.8698 39.984C80.5466 40.1154 80.1595 40.1811 79.7085 40.1811ZM80.0548 38.9027C80.4951 38.9027 80.8715 38.8157 81.184 38.6417C81.5001 38.4677 81.7398 38.2404 81.9031 37.9599C82.07 37.6758 82.1535 37.3722 82.1535 37.049V35.9943C82.0967 36.0511 81.9866 36.1044 81.8232 36.1541C81.6634 36.2003 81.4806 36.2411 81.2746 36.2766C81.0686 36.3086 80.868 36.3388 80.6727 36.3672C80.4774 36.392 80.314 36.4134 80.1826 36.4311C79.8737 36.4702 79.5914 36.5359 79.3357 36.6282C79.0835 36.7205 78.8811 36.8537 78.7284 37.0277C78.5793 37.1982 78.5047 37.4254 78.5047 37.7095C78.5047 38.1037 78.6503 38.402 78.9415 38.6044C79.2327 38.8033 79.6038 38.9027 80.0548 38.9027ZM89.6868 31.8182V33.0966H85.2177V31.8182H89.6868ZM86.4162 29.858H88.0089V37.5977C88.0089 37.9066 88.055 38.1392 88.1474 38.2955C88.2397 38.4482 88.3587 38.5529 88.5043 38.6097C88.6534 38.663 88.815 38.6896 88.989 38.6896C89.1168 38.6896 89.2287 38.6808 89.3246 38.663C89.4205 38.6452 89.495 38.631 89.5483 38.6204L89.8359 39.9361C89.7436 39.9716 89.6122 40.0071 89.4418 40.0426C89.2713 40.0817 89.0582 40.103 88.8026 40.1065C88.3835 40.1136 87.9929 40.0391 87.6307 39.8828C87.2685 39.7266 86.9755 39.4851 86.7518 39.1584C86.5281 38.8317 86.4162 38.4215 86.4162 37.9279V29.858ZM91.4486 40V31.8182H92.988V33.1179H93.0732C93.2224 32.6776 93.4852 32.3313 93.8616 32.0792C94.2416 31.8235 94.6713 31.6957 95.1507 31.6957C95.2501 31.6957 95.3673 31.6992 95.5022 31.7063C95.6407 31.7134 95.749 31.7223 95.8271 31.733V33.2564C95.7632 33.2386 95.6496 33.2191 95.4862 33.1978C95.3229 33.1729 95.1595 33.1605 94.9962 33.1605C94.6198 33.1605 94.2842 33.2404 93.9894 33.4002C93.6982 33.5565 93.4674 33.7749 93.297 34.0554C93.1265 34.3324 93.0413 34.6484 93.0413 35.0036V40H91.4486ZM97.2054 40V31.8182H98.7981V40H97.2054ZM98.0098 30.5558C97.7328 30.5558 97.4949 30.4634 97.296 30.2788C97.1007 30.0906 97.003 29.8668 97.003 29.6076C97.003 29.3448 97.1007 29.1211 97.296 28.9364C97.4949 28.7482 97.7328 28.6541 98.0098 28.6541C98.2868 28.6541 98.5229 28.7482 98.7182 28.9364C98.9171 29.1211 99.0165 29.3448 99.0165 29.6076C99.0165 29.8668 98.9171 30.0906 98.7182 30.2788C98.5229 30.4634 98.2868 30.5558 98.0098 30.5558ZM104.76 31.8182V33.0966H100.291V31.8182H104.76ZM101.489 29.858H103.082V37.5977C103.082 37.9066 103.128 38.1392 103.221 38.2955C103.313 38.4482 103.432 38.5529 103.578 38.6097C103.727 38.663 103.888 38.6896 104.062 38.6896C104.19 38.6896 104.302 38.6808 104.398 38.663C104.494 38.6452 104.568 38.631 104.622 38.6204L104.909 39.9361C104.817 39.9716 104.685 40.0071 104.515 40.0426C104.345 40.0817 104.131 40.103 103.876 40.1065C103.457 40.1136 103.066 40.0391 102.704 39.8828C102.342 39.7266 102.049 39.4851 101.825 39.1584C101.601 38.8317 101.489 38.4215 101.489 37.9279V29.858ZM112.521 33.8157L111.078 34.0714C111.017 33.8867 110.921 33.7109 110.79 33.544C110.662 33.3771 110.488 33.2404 110.268 33.1339C110.048 33.0273 109.772 32.9741 109.442 32.9741C108.991 32.9741 108.615 33.0753 108.313 33.2777C108.011 33.4766 107.86 33.734 107.86 34.0501C107.86 34.3235 107.961 34.5437 108.164 34.7106C108.366 34.8775 108.693 35.0142 109.144 35.1207L110.444 35.419C111.196 35.593 111.758 35.8612 112.127 36.2234C112.496 36.5856 112.681 37.0561 112.681 37.6349C112.681 38.125 112.539 38.5618 112.255 38.9453C111.974 39.3253 111.582 39.6236 111.078 39.8402C110.577 40.0568 109.996 40.1651 109.336 40.1651C108.419 40.1651 107.672 39.9698 107.093 39.5792C106.514 39.185 106.159 38.6257 106.028 37.9013L107.567 37.6669C107.663 38.0682 107.86 38.3718 108.158 38.5778C108.457 38.7802 108.846 38.8814 109.325 38.8814C109.847 38.8814 110.264 38.7731 110.577 38.5565C110.889 38.3363 111.046 38.0682 111.046 37.7521C111.046 37.4964 110.95 37.2816 110.758 37.1076C110.57 36.9336 110.28 36.8022 109.89 36.7134L108.505 36.4098C107.741 36.2358 107.177 35.9588 106.811 35.5788C106.449 35.1989 106.267 34.7177 106.267 34.1353C106.267 33.6523 106.402 33.2298 106.672 32.8675C106.942 32.5053 107.315 32.223 107.791 32.0206C108.267 31.8146 108.812 31.7116 109.426 31.7116C110.31 31.7116 111.006 31.9034 111.514 32.2869C112.022 32.6669 112.358 33.1765 112.521 33.8157ZM116.813 40.1811C116.295 40.1811 115.826 40.0852 115.407 39.8935C114.988 39.6982 114.656 39.4158 114.411 39.0465C114.169 38.6772 114.048 38.2244 114.048 37.6882C114.048 37.2266 114.137 36.8466 114.315 36.5483C114.492 36.25 114.732 36.0138 115.034 35.8398C115.336 35.6658 115.673 35.5344 116.046 35.4457C116.419 35.3569 116.799 35.2894 117.186 35.2433C117.676 35.1864 118.074 35.1403 118.379 35.1048C118.684 35.0657 118.906 35.0036 119.045 34.9183C119.183 34.8331 119.253 34.6946 119.253 34.5028V34.4656C119.253 34.0004 119.121 33.6399 118.858 33.3842C118.599 33.1286 118.212 33.0007 117.697 33.0007C117.161 33.0007 116.738 33.1197 116.43 33.3576C116.124 33.592 115.913 33.853 115.796 34.1406L114.299 33.7997C114.476 33.3026 114.736 32.9013 115.077 32.5959C115.421 32.2869 115.817 32.0632 116.264 31.9247C116.712 31.7827 117.182 31.7116 117.676 31.7116C118.003 31.7116 118.349 31.7507 118.715 31.8288C119.084 31.9034 119.428 32.0419 119.748 32.2443C120.071 32.4467 120.336 32.7362 120.542 33.1126C120.748 33.4854 120.851 33.9702 120.851 34.5668V40H119.295V38.8814H119.231C119.128 39.0874 118.974 39.2898 118.768 39.4886C118.562 39.6875 118.297 39.8526 117.974 39.984C117.651 40.1154 117.264 40.1811 116.813 40.1811ZM117.159 38.9027C117.6 38.9027 117.976 38.8157 118.289 38.6417C118.605 38.4677 118.844 38.2404 119.008 37.9599C119.175 37.6758 119.258 37.3722 119.258 37.049V35.9943C119.201 36.0511 119.091 36.1044 118.928 36.1541C118.768 36.2003 118.585 36.2411 118.379 36.2766C118.173 36.3086 117.972 36.3388 117.777 36.3672C117.582 36.392 117.419 36.4134 117.287 36.4311C116.978 36.4702 116.696 36.5359 116.44 36.6282C116.188 36.7205 115.986 36.8537 115.833 37.0277C115.684 37.1982 115.609 37.4254 115.609 37.7095C115.609 38.1037 115.755 38.402 116.046 38.6044C116.337 38.8033 116.708 38.9027 117.159 38.9027ZM127.793 34.6999V36.0795H122.956V34.6999H127.793ZM136.046 33.8157L134.603 34.0714C134.543 33.8867 134.447 33.7109 134.315 33.544C134.187 33.3771 134.013 33.2404 133.793 33.1339C133.573 33.0273 133.298 32.9741 132.968 32.9741C132.517 32.9741 132.14 33.0753 131.838 33.2777C131.536 33.4766 131.386 33.734 131.386 34.0501C131.386 34.3235 131.487 34.5437 131.689 34.7106C131.892 34.8775 132.218 35.0142 132.669 35.1207L133.969 35.419C134.722 35.593 135.283 35.8612 135.652 36.2234C136.022 36.5856 136.206 37.0561 136.206 37.6349C136.206 38.125 136.064 38.5618 135.78 38.9453C135.5 39.3253 135.107 39.6236 134.603 39.8402C134.102 40.0568 133.522 40.1651 132.861 40.1651C131.945 40.1651 131.197 39.9698 130.619 39.5792C130.04 39.185 129.685 38.6257 129.553 37.9013L131.093 37.6669C131.188 38.0682 131.386 38.3718 131.684 38.5778C131.982 38.7802 132.371 38.8814 132.85 38.8814C133.372 38.8814 133.79 38.7731 134.102 38.5565C134.415 38.3363 134.571 38.0682 134.571 37.7521C134.571 37.4964 134.475 37.2816 134.283 37.1076C134.095 36.9336 133.806 36.8022 133.415 36.7134L132.03 36.4098C131.267 36.2358 130.702 35.9588 130.336 35.5788C129.974 35.1989 129.793 34.7177 129.793 34.1353C129.793 33.6523 129.928 33.2298 130.198 32.8675C130.468 32.5053 130.84 32.223 131.316 32.0206C131.792 31.8146 132.337 31.7116 132.952 31.7116C133.836 31.7116 134.532 31.9034 135.04 32.2869C135.547 32.6669 135.883 33.1765 136.046 33.8157ZM143.14 36.6069V31.8182H144.738V40H143.172V38.5831H143.087C142.899 39.0199 142.597 39.3839 142.181 39.6751C141.77 39.9627 141.256 40.1065 140.642 40.1065C140.116 40.1065 139.651 39.9911 139.246 39.7603C138.845 39.5259 138.529 39.1797 138.298 38.7216C138.071 38.2635 137.957 37.6971 137.957 37.0224V31.8182H139.55V36.8306C139.55 37.3881 139.705 37.832 140.013 38.1623C140.322 38.4925 140.724 38.6577 141.217 38.6577C141.516 38.6577 141.812 38.5831 142.107 38.4339C142.405 38.2848 142.652 38.0593 142.847 37.7575C143.046 37.4556 143.144 37.0721 143.14 36.6069ZM149.941 40.1598C149.281 40.1598 148.691 39.9911 148.173 39.6538C147.658 39.3129 147.253 38.8281 146.958 38.1996C146.667 37.5675 146.521 36.8093 146.521 35.9251C146.521 35.0408 146.669 34.2844 146.964 33.6559C147.262 33.0273 147.67 32.5462 148.189 32.2124C148.707 31.8786 149.295 31.7116 149.952 31.7116C150.46 31.7116 150.868 31.7969 151.177 31.9673C151.489 32.1342 151.731 32.3295 151.901 32.5533C152.075 32.777 152.21 32.9741 152.306 33.1445H152.402V29.0909H153.995V40H152.439V38.7269H152.306C152.21 38.9009 152.072 39.0998 151.891 39.3235C151.713 39.5472 151.468 39.7425 151.156 39.9094C150.843 40.0763 150.438 40.1598 149.941 40.1598ZM150.293 38.8015C150.751 38.8015 151.138 38.6808 151.454 38.4393C151.774 38.1942 152.015 37.8551 152.178 37.4219C152.345 36.9886 152.429 36.4844 152.429 35.9091C152.429 35.3409 152.347 34.8437 152.184 34.4176C152.02 33.9915 151.781 33.6594 151.465 33.4215C151.149 33.1836 150.758 33.0646 150.293 33.0646C149.813 33.0646 149.414 33.1889 149.094 33.4375C148.775 33.6861 148.533 34.0252 148.37 34.4549C148.21 34.8846 148.13 35.3693 148.13 35.9091C148.13 36.456 148.212 36.9478 148.375 37.3846C148.538 37.8214 148.78 38.1676 149.1 38.4233C149.423 38.6754 149.82 38.8015 150.293 38.8015ZM156.396 40V29.0909H157.988V33.1445H158.084C158.177 32.9741 158.31 32.777 158.484 32.5533C158.658 32.3295 158.899 32.1342 159.208 31.9673C159.517 31.7969 159.926 31.7116 160.433 31.7116C161.094 31.7116 161.683 31.8786 162.202 32.2124C162.72 32.5462 163.127 33.0273 163.422 33.6559C163.72 34.2844 163.869 35.0408 163.869 35.9251C163.869 36.8093 163.722 37.5675 163.427 38.1996C163.132 38.8281 162.727 39.3129 162.213 39.6538C161.698 39.9911 161.11 40.1598 160.449 40.1598C159.952 40.1598 159.546 40.0763 159.23 39.9094C158.917 39.7425 158.672 39.5472 158.494 39.3235C158.317 39.0998 158.18 38.9009 158.084 38.7269H157.951V40H156.396ZM157.956 35.9091C157.956 36.4844 158.04 36.9886 158.207 37.4219C158.374 37.8551 158.615 38.1942 158.931 38.4393C159.247 38.6808 159.634 38.8015 160.093 38.8015C160.568 38.8015 160.966 38.6754 161.286 38.4233C161.605 38.1676 161.847 37.8214 162.01 37.3846C162.177 36.9478 162.26 36.456 162.26 35.9091C162.26 35.3693 162.179 34.8846 162.015 34.4549C161.856 34.0252 161.614 33.6861 161.291 33.4375C160.971 33.1889 160.572 33.0646 160.093 33.0646C159.631 33.0646 159.24 33.1836 158.921 33.4215C158.605 33.6594 158.365 33.9915 158.202 34.4176C158.038 34.8437 157.956 35.3409 157.956 35.9091ZM165.658 40V31.8182H167.25V40H165.658ZM166.462 30.5558C166.185 30.5558 165.947 30.4634 165.748 30.2788C165.553 30.0906 165.455 29.8668 165.455 29.6076C165.455 29.3448 165.553 29.1211 165.748 28.9364C165.947 28.7482 166.185 28.6541 166.462 28.6541C166.739 28.6541 166.975 28.7482 167.17 28.9364C167.369 29.1211 167.469 29.3448 167.469 29.6076C167.469 29.8668 167.369 30.0906 167.17 30.2788C166.975 30.4634 166.739 30.5558 166.462 30.5558ZM170.442 40.1012C170.151 40.1012 169.901 39.9982 169.691 39.7923C169.482 39.5827 169.377 39.3306 169.377 39.0359C169.377 38.7447 169.482 38.4961 169.691 38.2901C169.901 38.0806 170.151 37.9759 170.442 37.9759C170.733 37.9759 170.984 38.0806 171.193 38.2901C171.403 38.4961 171.508 38.7447 171.508 39.0359C171.508 39.2312 171.458 39.4105 171.358 39.5739C171.263 39.7337 171.135 39.8615 170.975 39.9574C170.815 40.0533 170.638 40.1012 170.442 40.1012ZM173.641 40V31.8182H175.18V33.1179H175.266C175.415 32.6776 175.678 32.3313 176.054 32.0792C176.434 31.8235 176.864 31.6957 177.343 31.6957C177.442 31.6957 177.56 31.6992 177.695 31.7063C177.833 31.7134 177.941 31.7223 178.02 31.733V33.2564C177.956 33.2386 177.842 33.2191 177.679 33.1978C177.515 33.1729 177.352 33.1605 177.189 33.1605C176.812 33.1605 176.477 33.2404 176.182 33.4002C175.891 33.5565 175.66 33.7749 175.489 34.0554C175.319 34.3324 175.234 34.6484 175.234 35.0036V40H173.641ZM184.581 36.6069V31.8182H186.179V40H184.613V38.5831H184.527C184.339 39.0199 184.037 39.3839 183.622 39.6751C183.21 39.9627 182.697 40.1065 182.082 40.1065C181.557 40.1065 181.092 39.9911 180.687 39.7603C180.286 39.5259 179.97 39.1797 179.739 38.7216C179.511 38.2635 179.398 37.6971 179.398 37.0224V31.8182H180.991V36.8306C180.991 37.3881 181.145 37.832 181.454 38.1623C181.763 38.4925 182.164 38.6577 182.658 38.6577C182.956 38.6577 183.253 38.5831 183.547 38.4339C183.846 38.2848 184.092 38.0593 184.288 37.7575C184.487 37.4556 184.584 37.0721 184.581 36.6069Z" fill="white"/>
<path d="M33.5 25.5C33.5 34.3366 26.3366 41.5 17.5 41.5C8.66344 41.5 1.5 34.3366 1.5 25.5C1.5 16.6634 8.66344 9.5 17.5 9.5C26.3366 9.5 33.5 16.6634 33.5 25.5Z" stroke="white" stroke-width="3"/>
<path d="M43.5 28.5C43.5 37.3366 36.3366 44.5 27.5 44.5C18.6634 44.5 11.5 37.3366 11.5 28.5C11.5 19.6634 18.6634 12.5 27.5 12.5C36.3366 12.5 43.5 19.6634 43.5 28.5Z" stroke="#5FD48B" stroke-width="3"/>
<path d="M52.5 16.5C52.5 23.1274 47.1274 28.5 40.5 28.5C33.8726 28.5 28.5 23.1274 28.5 16.5C28.5 9.87258 33.8726 4.5 40.5 4.5C47.1274 4.5 52.5 9.87258 52.5 16.5Z" stroke="#7486C3" stroke-width="3"/>
</svg>
