<svg width="110" height="119" viewBox="0 0 110 119" fill="none" xmlns="http://www.w3.org/2000/svg">
<path d="M41.2155 111.855C40.4161 111.387 40.1128 110.728 40.1404 109.821C40.1955 107.87 40.1955 105.891 40.1404 103.94C40.0948 103.46 39.8799 103.012 39.5338 102.675C38.2381 101.466 36.9148 100.312 35.5639 99.24C31.1529 95.6947 29.3885 91.27 30.2983 85.6086C31.0978 80.5792 31.5113 75.4675 32.1178 70.4107C32.2281 69.6411 32.4211 68.8716 32.5865 68.0471H28.4787C27.0176 68.0197 26.4937 67.525 26.4937 66.0409V55.2402H7.03009C5.04513 55.2402 4.63159 54.8555 4.63159 52.9317V13.9338C4.63159 12.0649 5.04513 11.6527 6.91981 11.6527H26.4937V8.57463C26.4937 7.0356 26.99 6.54091 28.5063 6.54091C45.9482 6.50427 63.3902 6.50427 80.8321 6.54091C82.3484 6.54091 82.8446 7.06308 82.8722 8.57463V11.6527H103.328C104.955 11.6527 105.424 12.1199 105.451 13.7139V53.1241C105.451 54.773 104.955 55.2402 103.273 55.2402H89.2406C88.8985 55.2538 88.556 55.2262 88.2206 55.1578C87.4211 54.9379 86.98 54.3608 87.0627 53.5638C87.1454 52.7668 87.614 52.2171 88.4687 52.1896C89.7369 52.1347 91.005 52.1622 92.3008 52.1622H102.253V21.0518H82.8722V65.6012C82.8722 67.6349 82.4862 68.0471 80.391 68.0471H78.0201C78.3509 69.5312 78.7093 70.9328 78.9574 72.3619C79.9499 77.9134 79.4812 83.3825 77.8546 88.7966C76.614 93.0289 75.4286 97.2887 74.2707 101.549C74.089 102.24 73.9872 102.95 73.9674 103.665C73.9399 105.643 73.9399 107.595 73.9674 109.546C73.995 110.48 73.8296 111.305 72.975 111.855H53.3734C52.6291 111.387 52.0777 110.755 52.4085 109.821C52.7394 108.886 53.5389 108.749 54.4211 108.749H70.8797C70.8797 107.182 70.8246 105.726 70.8797 104.297C70.9348 102.868 70.9349 102.098 71.183 101.054C72.0652 97.7559 73.0577 94.458 73.9674 91.1601C74.8772 87.8622 75.98 84.2894 76.3108 80.6617C76.8622 74.4781 74.9599 68.7342 73.3885 62.9354C73.1404 61.946 72.3409 61.4513 71.3208 61.3689C69.8321 61.2314 68.8672 62.0559 68.5915 63.6499C68.4261 64.7492 67.8747 65.2714 66.9374 65.2164C66 65.1615 65.5313 64.5843 65.5038 63.4575C65.4762 63.0453 65.5038 62.6331 65.4762 62.2208C65.3935 61.0116 64.8697 60.352 63.7118 59.9672C61.6717 59.3351 60.3208 60.1596 59.9348 62.2758C59.7419 63.2652 59.1629 63.7873 58.2256 63.6774C57.2882 63.5675 56.8471 63.0453 56.8471 62.1109C56.8471 61.1765 56.8747 60.6543 56.8196 59.9398C56.7644 58.4832 55.8822 57.6037 54.4486 57.4663C52.4912 57.2739 51.3058 58.3458 51.2782 60.3245C51.2506 62.3033 50.8095 63.0453 49.7068 63.0453C48.604 63.0453 48.1629 62.2483 48.1629 60.297C48.1629 54.3608 48.1905 48.4245 48.1629 42.4883C48.1762 41.9793 48.1206 41.4709 47.9975 40.9767C47.8327 40.4471 47.4844 39.9931 47.0146 39.696C46.5449 39.399 45.9845 39.2782 45.4336 39.3552C44.9007 39.399 44.3984 39.6209 44.008 39.9851C43.6177 40.3493 43.3622 40.8343 43.2832 41.3615C43.2465 41.7726 43.2373 42.1858 43.2556 42.5982V82.7229C43.2795 83.1671 43.233 83.6123 43.1178 84.0421C43.0327 84.3795 42.8246 84.6734 42.5342 84.8664C42.2437 85.0594 41.8916 85.1379 41.5464 85.0864C41.1979 85.0627 40.8688 84.9175 40.6168 84.6764C40.3648 84.4352 40.2059 84.1134 40.1679 83.7672C40.1404 83.4649 40.1679 83.1626 40.1679 82.8328C40.1679 78.8753 40.1679 74.8903 40.1404 70.9053C40.1404 69.2564 39.203 68.1571 37.7694 68.1296C36.3359 68.1021 35.3985 69.0365 35.2055 70.658C34.599 75.7423 34.1855 80.8816 33.3584 85.9384C32.614 90.5555 34.1028 94.0458 37.6316 96.904C39.0652 98.0582 40.416 99.3499 41.8772 100.504C42.8697 101.301 43.3659 102.181 43.2832 103.472C43.1729 105.204 43.2556 106.935 43.2556 108.749H45.8471C46.7293 108.722 47.5288 108.831 47.8872 109.766C48.2456 110.7 47.6667 111.305 46.9775 111.827L41.2155 111.855ZM79.7018 64.9141V21.0518H29.6642V64.8592H40.1679V63.54C40.1679 56.2846 40.1404 49.0016 40.1679 41.7462C40.1611 40.4884 40.5872 39.2664 41.3751 38.284C42.1631 37.3015 43.2652 36.6183 44.4975 36.3481C45.7298 36.078 47.0178 36.2374 48.1464 36.7996C49.2751 37.3619 50.1762 38.2931 50.6993 39.4377C50.9749 40.0698 51.3058 40.2622 51.995 40.2622H65.2005C67.9574 40.2622 69.8597 42.1585 69.9148 44.9067V47.7649C69.8597 50.2109 68.1504 52.1896 65.7243 52.3271C62.7744 52.4645 59.8246 52.382 56.8747 52.3545C56.6661 52.3586 56.4589 52.3198 56.2661 52.2404C56.0733 52.161 55.8989 52.0428 55.754 51.8932C55.6091 51.7436 55.4967 51.5658 55.4239 51.3709C55.3511 51.176 55.3194 50.9682 55.3308 50.7605C55.3584 49.9361 55.9649 49.3589 56.8747 49.304H65.0351C66.2481 49.304 66.7995 48.7543 66.7995 47.5726C66.8271 46.8305 66.8271 46.116 66.8271 45.4014C66.7995 43.8349 66.3584 43.3677 64.8145 43.3677H52.2155L51.3609 43.4227V54.8555C54.7795 53.7562 57.5088 54.5257 59.4662 57.5488C62.6917 56.0372 65.0902 56.5319 67.7644 59.2527L68.1228 59.0878C71.7068 57.1915 75.4837 58.813 76.5589 62.7155C76.7519 63.4575 76.9724 64.1996 77.1654 64.9416L79.7018 64.9141ZM7.80202 21.0243V52.1072H26.411V21.0243H7.80202ZM79.7018 17.8363V9.67394H29.6642V17.8363H79.7018ZM82.8998 17.8363H102.281V14.8132H82.8998V17.8363ZM26.4386 14.8132H7.77445V17.8088H26.4386V14.8132Z" fill="#050D42"/>
<path d="M92.1905 29.1316H96.5188C97.594 29.1316 98.2005 29.6812 98.228 30.6157C98.2556 31.5501 97.6215 32.1822 96.5464 32.1822C93.5873 32.2188 90.6374 32.2188 87.6967 32.1822C86.594 32.1822 85.9323 31.5226 85.9874 30.5607C86.0426 29.5988 86.6491 29.1316 87.7519 29.1316H92.1905Z" fill="#050D42"/>
<path d="M92.0802 38.8331H87.8622C86.6492 38.8056 85.9599 38.2284 85.9875 37.2666C86.0151 36.3047 86.6491 35.755 87.807 35.755H96.4637C97.5664 35.755 98.2281 36.3596 98.2281 37.294C98.2281 38.2284 97.5389 38.8056 96.4085 38.8331H92.0802Z" fill="#050D42"/>
<path d="M42.1529 23.9648H47.9148C49.2657 23.9648 49.8446 24.487 49.8446 25.7787C49.8722 27.9498 49.8722 30.0935 49.8446 32.2646C49.8446 33.5013 49.2381 34.051 47.9699 34.051H36.3359C35.1228 34.051 34.5714 33.5013 34.5439 32.3196C34.5255 30.0843 34.5255 27.8582 34.5439 25.6413C34.5714 24.487 35.0953 23.9648 36.2807 23.9648H42.1529ZM46.7018 30.9454V27.1254H37.6867V30.9454H46.7018Z" fill="#050D42"/>
<path d="M64.2631 27.4827H72.01C73.223 27.5101 73.9398 28.0598 73.9398 28.9942C73.9398 29.9286 73.223 30.5882 71.9549 30.5882H56.4887C55.193 30.5882 54.4486 30.0111 54.4486 29.0492C54.4486 28.0873 55.1654 27.5101 56.5438 27.4827H64.2631Z" fill="#050D42"/>
<path d="M16.9825 32.2097H12.7644C11.5514 32.1822 10.8622 31.605 10.8622 30.6431C10.8622 29.6812 11.5514 29.1316 12.792 29.1316H21.2281C22.4687 29.1316 23.1304 29.6812 23.1304 30.6431C23.1304 31.605 22.4136 32.1822 21.2281 32.2097H16.9825Z" fill="#050D42"/>
<path d="M16.8446 38.833H12.6266C11.5238 38.833 10.8622 38.2009 10.8622 37.2665C10.8622 36.3321 11.5514 35.7825 12.599 35.7825H21.3659C22.4687 35.7825 23.1579 36.3871 23.1304 37.349C23.1028 38.3109 22.4411 38.833 21.3935 38.833H16.8446Z" fill="#050D42"/>
<path d="M54.7519 12.2848H63.2155C64.4837 12.3123 65.2005 12.8894 65.1729 13.8788C65.1453 14.8682 64.4561 15.3628 63.2155 15.3903H46.1228C44.8546 15.3628 44.1103 14.7582 44.1378 13.7963C44.1654 12.8344 44.8822 12.3123 46.0952 12.2848H54.7519Z" fill="#050D42"/>
</svg>
